<?xml version="1.0" standalone="no"?>
<!DOCTYPE svg PUBLIC "-//W3C//DTD SVG 20010904//EN"
 "http://www.w3.org/TR/2001/REC-SVG-20010904/DTD/svg10.dtd">
<svg version="1.0" xmlns="http://www.w3.org/2000/svg"
 width="1280.000000pt" height="1280.000000pt" viewBox="0 0 1280.000000 1280.000000"
 preserveAspectRatio="xMidYMid meet">
<metadata>
Created by potrace 1.15, written by Peter Selinger 2001-2017
</metadata>
<g transform="translate(0.000000,1280.000000) scale(0.100000,-0.100000)"
fill="#2196f3" stroke="none">
<path d="M5925 12779 c-1722 -92 -3331 -899 -4435 -2224 -720 -865 -1181
-1874 -1364 -2990 -17 -102 -39 -282 -58 -465 -20 -198 -17 -881 5 -1100 141
-1383 669 -2576 1599 -3617 60 -67 109 -125 109 -130 0 -15 72 -82 82 -76 6 3
7 1 3 -5 -14 -23 391 -408 639 -608 1517 -1224 3520 -1661 5420 -1184 1621
407 3029 1477 3865 2935 1092 1906 1092 4267 0 6170 -109 189 -273 442 -303
468 -12 10 -15 16 -7 12 8 -4 5 2 -7 12 -12 10 -61 74 -109 143 -659 946
-1588 1704 -2649 2162 -866 375 -1837 548 -2790 497z m-4099 -10561 l29 -33
-32 29 c-18 17 -33 31 -33 33 0 8 8 1 36 -29z"/>
</g>
</svg>
